<?xml version="1.0" encoding="UTF-8" standalone="no"?>
<svg
   xmlns:dc="http://purl.org/dc/elements/1.1/"
   xmlns:cc="http://creativecommons.org/ns#"
   xmlns:rdf="http://www.w3.org/1999/02/22-rdf-syntax-ns#"
   xmlns:svg="http://www.w3.org/2000/svg"
   xmlns="http://www.w3.org/2000/svg"
   viewBox="0 0 377.95292 226.77879"
   height="226.77879"
   width="377.95291"
   xml:space="preserve"
   id="svg2"
   version="1.1"><metadata
     id="metadata8"><rdf:RDF><cc:Work
         rdf:about=""><dc:format>image/svg+xml</dc:format><dc:type
           rdf:resource="http://purl.org/dc/dcmitype/StillImage" /><dc:title></dc:title></cc:Work></rdf:RDF></metadata><defs
     id="defs6"><clipPath
       id="clipPath18"
       clipPathUnits="userSpaceOnUse"><path
         id="path16"
         d="M 0,595.281 H 841.889 V 0 H 0 Z" /></clipPath><clipPath
       id="clipPath78"
       clipPathUnits="userSpaceOnUse"><path
         id="path76"
         d="m 441.018,421.595 c -13.619,-2.014 -25.436,-12.145 -30.012,-25.957 v 0 c -2.604,-11.361 13.053,-20.843 30.702,-26.721 v 0 c -11.391,33.444 13.012,51.186 1.67,52.74 v 0 c -0.24,0.033 -0.526,0.047 -0.825,0.047 v 0 c -0.534,0 -1.109,-0.045 -1.535,-0.109" /></clipPath><radialGradient
       id="radialGradient90"
       spreadMethod="pad"
       gradientTransform="matrix(-29.42934,-10.56696,-10.56696,29.42934,444.25049,404.45288)"
       gradientUnits="userSpaceOnUse"
       r="1"
       cy="0"
       cx="0"
       fy="0"
       fx="0"><stop
         id="stop84"
         offset="0"
         style="stop-opacity:1;stop-color:#b94d34" /><stop
         id="stop86"
         offset="0.59344801"
         style="stop-opacity:1;stop-color:#b94d34" /><stop
         id="stop88"
         offset="1"
         style="stop-opacity:1;stop-color:#7e180f" /></radialGradient><clipPath
       id="clipPath100"
       clipPathUnits="userSpaceOnUse"><path
         id="path98"
         d="m 409.095,373.852 c 4.307,-21.492 24.877,-35.682 46.264,-31.795 v 0 c 5.526,1.006 10.355,3.076 14.585,6.257 v 0 c 8.213,6.176 -1.504,8.945 -23.785,15.624 v 0 c -4.463,1.27 -8.576,2.651 -12.312,4.134 v 0 c -8.466,3.286 -15.547,7.186 -19.804,11.814 v 0 c -2.508,2.496 -4.237,5.094 -5.129,7.755 v 0 c -0.695,-4.422 -0.736,-9.243 0.181,-13.789" /></clipPath><radialGradient
       id="radialGradient114"
       spreadMethod="pad"
       gradientTransform="matrix(-45.267654,-8.4667168,-8.4667168,45.267654,452.90479,386.05688)"
       gradientUnits="userSpaceOnUse"
       r="1"
       cy="0"
       cx="0"
       fy="0"
       fx="0"><stop
         id="stop106"
         offset="0"
         style="stop-opacity:1;stop-color:#af3c26" /><stop
         id="stop108"
         offset="0.570487"
         style="stop-opacity:1;stop-color:#af3c26" /><stop
         id="stop110"
         offset="0.82173594"
         style="stop-opacity:1;stop-color:#af3c26" /><stop
         id="stop112"
         offset="1"
         style="stop-opacity:1;stop-color:#5f110a" /></radialGradient><clipPath
       id="clipPath124"
       clipPathUnits="userSpaceOnUse"><path
         id="path122"
         d="m 478.966,359.143 c 0.667,-0.092 1.695,-0.037 2.358,0.06 v 0 c 13.62,2.019 25.437,12.149 30.013,25.962 v 0 c 2.607,11.36 -13.05,20.841 -30.7,26.72 v 0 c 11.389,-33.446 -13.011,-51.186 -1.671,-52.742" /></clipPath><radialGradient
       id="radialGradient138"
       spreadMethod="pad"
       gradientTransform="matrix(41.59951,4.2762241,4.2762241,-41.59951,471.66748,374.30322)"
       gradientUnits="userSpaceOnUse"
       r="1"
       cy="0"
       cx="0"
       fy="0"
       fx="0"><stop
         id="stop130"
         offset="0"
         style="stop-opacity:1;stop-color:#e8daa0" /><stop
         id="stop132"
         offset="0.233338"
         style="stop-opacity:1;stop-color:#e8daa0" /><stop
         id="stop134"
         offset="0.52496019"
         style="stop-opacity:1;stop-color:#e8daa0" /><stop
         id="stop136"
         offset="1"
         style="stop-opacity:1;stop-color:#a69b72" /></radialGradient><clipPath
       id="clipPath148"
       clipPathUnits="userSpaceOnUse"><path
         id="path146"
         d="m 466.925,438.861 c -5.521,-1.005 -10.353,-3.077 -14.584,-6.257 v 0 c -8.213,-6.176 1.506,-8.945 23.783,-15.624 v 0 c 4.466,-1.268 8.577,-2.652 12.312,-4.133 v 0 c 8.468,-3.287 15.547,-7.186 19.806,-11.814 v 0 c 2.511,-2.498 4.239,-5.096 5.131,-7.753 v 0 c 0.695,4.421 0.733,9.242 -0.181,13.785 v 0 c -3.831,19.101 -20.503,32.437 -39.179,32.438 v 0 c -2.339,0 -4.708,-0.209 -7.088,-0.642" /></clipPath><radialGradient
       id="radialGradient164"
       spreadMethod="pad"
       gradientTransform="matrix(45.26577,8.4663649,8.4663649,-45.26577,469.38232,394.86279)"
       gradientUnits="userSpaceOnUse"
       r="1"
       cy="0"
       cx="0"
       fy="0"
       fx="0"><stop
         id="stop154"
         offset="0"
         style="stop-opacity:1;stop-color:#e8daa0" /><stop
         id="stop156"
         offset="0.6"
         style="stop-opacity:1;stop-color:#e8daa0" /><stop
         id="stop158"
         offset="0.69858175"
         style="stop-opacity:1;stop-color:#e8daa0" /><stop
         id="stop160"
         offset="0.974783"
         style="stop-opacity:1;stop-color:#bcb081" /><stop
         id="stop162"
         offset="1"
         style="stop-opacity:1;stop-color:#bcb081" /></radialGradient></defs><g
     transform="matrix(1.3333333,0,0,-1.3333333,-318.21946,586.00399)"
     id="g10"><g
       id="g12"><g
         clip-path="url(#clipPath18)"
         id="g14"><g
           transform="translate(267.3286,364.5933)"
           id="g20"><path
             id="path22"
             style="fill:#231f20;fill-opacity:1;fill-rule:nonzero;stroke:none"
             d="m 0,0 v -37.376 c 0,-1.874 -1.451,-3.144 -3.142,-3.144 -1.753,0 -3.206,1.27 -3.206,3.144 v 16.451 h -15.966 v -16.451 c 0,-1.874 -1.451,-3.144 -3.146,-3.144 -1.754,0 -3.204,1.27 -3.204,3.144 V 0 c 0,1.813 1.45,3.083 3.204,3.083 1.695,0 3.146,-1.27 3.146,-3.083 V -14.819 H -6.348 V 0 c 0,1.813 1.453,3.083 3.206,3.083 C -1.451,3.083 0,1.813 0,0" /></g><g
           transform="translate(287.0493,337.8008)"
           id="g24"><path
             id="path26"
             style="fill:#231f20;fill-opacity:1;fill-rule:nonzero;stroke:none"
             d="m 0,0 c -3.751,0 -6.231,-0.967 -6.231,-4.051 0,-3.206 2.48,-3.992 6.348,-3.992 1.938,0 3.752,0.242 5.565,0.726 V 0 Z M 11.914,8.225 V -8.89 c 0,-1.391 -0.786,-2.842 -2.422,-3.386 -2.419,-0.847 -5.925,-1.452 -9.31,-1.452 -7.62,0 -12.642,2.843 -12.642,9.797 0,7.016 5.745,9.677 12.642,9.677 h 5.5 v 2.419 c 0,2.359 -1.753,4.233 -5.321,4.233 -2.055,0 -3.75,-0.303 -5.323,-1.088 -1.025,-0.485 -1.812,-0.907 -2.779,-0.907 -1.451,0 -2.902,1.209 -2.902,2.902 0,1.028 0.542,1.936 1.451,2.48 1.69,1.028 5.08,2.359 9.309,2.359 6.473,0 11.797,-3.266 11.797,-9.919" /></g><g
           transform="translate(313.478,364.5933)"
           id="g28"><path
             id="path30"
             style="fill:#231f20;fill-opacity:1;fill-rule:nonzero;stroke:none"
             d="m 0,0 v -10.402 c 1.995,1.088 4.777,1.754 6.774,1.754 7.319,0 11.368,-4.295 11.368,-12.036 v -16.751 c 0,-1.815 -1.329,-3.085 -3.082,-3.085 -1.818,0 -3.146,1.27 -3.146,3.085 v 17.114 c 0,3.931 -2.116,5.927 -5.867,5.927 -2.115,0 -4.172,-0.666 -6.047,-2.117 v -20.924 c 0,-1.815 -1.33,-3.085 -3.084,-3.085 -1.815,0 -3.145,1.27 -3.145,3.085 V 0 c 0,1.813 1.33,3.083 3.145,3.083 C -1.33,3.083 0,1.813 0,0" /></g><g
           transform="translate(364.4019,344.0308)"
           id="g32"><path
             id="path34"
             style="fill:#231f20;fill-opacity:1;fill-rule:nonzero;stroke:none"
             d="m 0,0 v -16.873 c 0,-1.814 -1.332,-3.085 -3.086,-3.085 -1.813,0 -3.145,1.271 -3.145,3.085 V 0.241 c 0,3.81 -2.056,5.927 -5.986,5.927 -2.055,0 -4.054,-0.303 -5.929,-0.846 v -22.195 c 0,-1.814 -1.329,-3.085 -3.082,-3.085 -1.815,0 -3.146,1.271 -3.146,3.085 V 6.772 c 0,1.695 0.968,3.024 2.722,3.569 2.965,0.968 6.11,1.573 9.435,1.573 C -4.112,11.914 0,7.801 0,0" /></g><g
           transform="translate(311.2944,310.7852)"
           id="g36"><path
             id="path38"
             style="fill:#231f20;fill-opacity:1;fill-rule:nonzero;stroke:none"
             d="m 0,0 c 1.271,-0.666 1.817,-1.572 1.817,-2.903 0,-1.633 -1.211,-2.903 -2.784,-2.903 -0.968,0 -1.632,0.303 -2.661,0.726 -2.539,1.028 -4.353,1.39 -7.256,1.39 -3.448,0 -6.713,-1.813 -6.713,-5.08 0,-2.902 1.571,-4.293 5.02,-5.865 l 7.077,-3.266 c 4.05,-1.874 8.465,-4.596 8.465,-11.612 0,-7.317 -5.925,-11.853 -13.789,-11.853 -4.293,0 -7.982,0.847 -11.25,2.359 -1.328,0.605 -1.935,1.632 -1.935,2.903 0,1.814 1.212,3.023 2.903,3.023 0.849,0 1.391,-0.181 2.723,-0.725 2.117,-0.907 4.412,-1.633 7.559,-1.633 4.355,0 7.38,1.996 7.38,5.745 0,3.265 -1.874,4.718 -5.504,6.471 l -7.379,3.448 c -4.232,1.995 -7.619,5.14 -7.619,10.764 0,6.834 5.443,11.249 13.425,11.249 C -6.286,2.238 -2.96,1.452 0,0" /></g><g
           transform="translate(340.145,299.1738)"
           id="g40"><path
             id="path42"
             style="fill:#231f20;fill-opacity:1;fill-rule:nonzero;stroke:none"
             d="m 0,0 c 0.968,-0.544 1.573,-1.512 1.573,-2.6 0,-1.633 -1.148,-2.843 -2.783,-2.843 -1.208,0 -1.875,0.484 -3.024,0.968 -1.207,0.483 -2.721,0.847 -4.597,0.847 -3.627,0 -5.866,-2.179 -5.866,-6.411 v -7.56 c 0,-4.233 2.178,-6.471 5.866,-6.471 1.876,0 3.449,0.423 4.659,0.968 1.027,0.423 1.754,0.847 2.843,0.847 1.691,0 2.902,-1.149 2.902,-2.844 0,-1.088 -0.605,-2.055 -1.573,-2.599 -2.418,-1.27 -5.562,-2.056 -8.709,-2.056 -7.498,0 -12.217,4.655 -12.217,12.155 v 7.56 c 0,7.802 5.023,12.155 12.217,12.155 C -5.562,2.116 -2.418,1.331 0,0" /></g><g
           transform="translate(352.9058,309.939)"
           id="g44"><path
             id="path46"
             style="fill:#231f20;fill-opacity:1;fill-rule:nonzero;stroke:none"
             d="m 0,0 v -10.402 c 1.999,1.089 4.777,1.753 6.775,1.753 7.318,0 11.369,-4.293 11.369,-12.034 v -16.752 c 0,-1.816 -1.33,-3.085 -3.084,-3.085 -1.814,0 -3.145,1.269 -3.145,3.085 v 17.115 c 0,3.931 -2.116,5.926 -5.867,5.926 -2.115,0 -4.172,-0.665 -6.048,-2.117 v -20.924 c 0,-1.816 -1.328,-3.085 -3.082,-3.085 -1.815,0 -3.146,1.269 -3.146,3.085 V 0 c 0,1.813 1.331,3.084 3.146,3.084 C -1.328,3.084 0,1.813 0,0" /></g><g
           transform="translate(384.7202,298.2061)"
           id="g48"><path
             id="path50"
             style="fill:#231f20;fill-opacity:1;fill-rule:nonzero;stroke:none"
             d="m 0,0 v -25.702 c 0,-1.816 -1.271,-3.085 -3.084,-3.085 -1.813,0 -3.146,1.269 -3.146,3.085 V 0 c 0,1.814 1.333,3.084 3.146,3.084 C -1.271,3.084 0,1.814 0,0 M 0.545,11.189 C 0.545,9.132 -1.088,7.5 -3.084,7.5 c -1.997,0 -3.63,1.632 -3.63,3.689 0,1.996 1.633,3.628 3.63,3.628 1.996,0 3.629,-1.632 3.629,-3.628" /></g><g
           transform="translate(412.6001,299.1738)"
           id="g52"><path
             id="path54"
             style="fill:#231f20;fill-opacity:1;fill-rule:nonzero;stroke:none"
             d="m 0,0 c 0.967,-0.544 1.573,-1.512 1.573,-2.6 0,-1.633 -1.148,-2.843 -2.783,-2.843 -1.208,0 -1.873,0.484 -3.024,0.968 -1.207,0.483 -2.722,0.847 -4.596,0.847 -3.626,0 -5.866,-2.179 -5.866,-6.411 v -7.56 c 0,-4.233 2.176,-6.471 5.866,-6.471 1.874,0 3.447,0.423 4.658,0.968 1.026,0.423 1.754,0.847 2.842,0.847 1.691,0 2.903,-1.149 2.903,-2.844 0,-1.088 -0.606,-2.055 -1.573,-2.599 -2.418,-1.27 -5.563,-2.056 -8.71,-2.056 -7.497,0 -12.216,4.655 -12.216,12.155 v 7.56 c 0,7.802 5.021,12.155 12.216,12.155 C -5.563,2.116 -2.418,1.331 0,0" /></g><g
           transform="translate(425.3618,309.939)"
           id="g56"><path
             id="path58"
             style="fill:#231f20;fill-opacity:1;fill-rule:nonzero;stroke:none"
             d="m 0,0 v -19.293 l 11.129,9.738 c 0.725,0.604 1.451,0.906 2.236,0.906 1.694,0 3.025,-1.27 3.025,-3.024 0,-0.786 -0.302,-1.572 -1.088,-2.237 L 4.537,-22.921 16.088,-35.439 c 0.604,-0.666 0.785,-1.332 0.785,-2.058 0,-1.572 -1.149,-3.023 -3.023,-3.023 -0.907,0 -1.754,0.363 -2.358,1.089 L 0,-26.429 v -11.006 c 0,-1.816 -1.39,-3.085 -3.083,-3.085 -1.815,0 -3.146,1.269 -3.146,3.085 V 0 c 0,1.813 1.27,3.084 3.146,3.084 C -1.33,3.084 0,1.813 0,0" /></g><g
           transform="translate(458.3833,283.1479)"
           id="g60"><path
             id="path62"
             style="fill:#231f20;fill-opacity:1;fill-rule:nonzero;stroke:none"
             d="m 0,0 c -3.747,0 -6.227,-0.969 -6.227,-4.053 0,-3.205 2.48,-3.991 6.349,-3.991 1.935,0 3.75,0.242 5.565,0.726 V 0 Z M 11.915,8.225 V -8.89 c 0,-1.391 -0.787,-2.843 -2.418,-3.388 -2.42,-0.846 -5.927,-1.451 -9.313,-1.451 -7.621,0 -12.64,2.843 -12.64,9.797 0,7.016 5.745,9.677 12.64,9.677 h 5.503 v 2.419 c 0,2.358 -1.754,4.233 -5.324,4.233 -2.054,0 -3.747,-0.302 -5.32,-1.088 -1.028,-0.484 -1.814,-0.907 -2.783,-0.907 -1.451,0 -2.903,1.209 -2.903,2.903 0,1.027 0.546,1.934 1.452,2.479 1.693,1.028 5.08,2.358 9.313,2.358 6.472,0 11.793,-3.266 11.793,-9.917" /></g><g
           transform="translate(491.5864,300.8672)"
           id="g64"><path
             id="path66"
             style="fill:#231f20;fill-opacity:1;fill-rule:nonzero;stroke:none"
             d="m 0,0 c 1.573,-0.303 2.48,-1.392 2.48,-2.963 0,-1.633 -1.21,-2.843 -2.963,-2.843 -0.907,0 -2.117,0.363 -3.627,0.363 -1.937,0 -3.267,-1.33 -3.267,-3.447 v -19.473 c 0,-1.816 -1.331,-3.085 -3.084,-3.085 -1.814,0 -3.146,1.269 -3.146,3.085 v 19.655 c 0,5.624 3.569,9.131 9.073,9.131 C -2.781,0.423 -1.147,0.242 0,0" /></g><g
           transform="translate(503.9263,289.6187)"
           id="g68"><path
             id="path70"
             style="fill:#231f20;fill-opacity:1;fill-rule:nonzero;stroke:none"
             d="m 0,0 v -8.528 c 0,-3.808 2.116,-5.987 5.987,-5.987 2.056,0 4.113,0.304 5.988,0.847 V 3.871 C 10.22,5.14 8.226,5.927 5.987,5.927 2.057,5.927 0,3.871 0,0 m 18.203,20.32 v -35.379 c 0,-1.632 -1.027,-3.024 -2.6,-3.568 -3.024,-1.028 -6.29,-1.572 -9.616,-1.572 -7.499,0 -12.216,3.991 -12.216,12.034 v 7.802 c 0,7.923 4.717,12.034 11.612,12.034 1.934,0 4.535,-0.604 6.592,-1.753 V 20.32 c 0,1.814 1.331,3.084 3.085,3.084 1.812,0 3.143,-1.27 3.143,-3.084" /></g></g></g><g
       id="g72"><g
         clip-path="url(#clipPath78)"
         id="g74"><g
           id="g80"><g
             id="g82"><path
               id="path92"
               style="fill:url(#radialGradient90);stroke:none"
               d="m 441.018,421.595 c -13.619,-2.014 -25.436,-12.145 -30.012,-25.957 v 0 c -2.604,-11.361 13.053,-20.843 30.702,-26.721 v 0 c -11.391,33.444 13.012,51.186 1.67,52.74 v 0 c -0.24,0.033 -0.526,0.047 -0.825,0.047 v 0 c -0.534,0 -1.109,-0.045 -1.535,-0.109" /></g></g></g></g><g
       id="g94"><g
         clip-path="url(#clipPath100)"
         id="g96"><g
           id="g102"><g
             id="g104"><path
               id="path116"
               style="fill:url(#radialGradient114);stroke:none"
               d="m 409.095,373.852 c 4.307,-21.492 24.877,-35.682 46.264,-31.795 v 0 c 5.526,1.006 10.355,3.076 14.585,6.257 v 0 c 8.213,6.176 -1.504,8.945 -23.785,15.624 v 0 c -4.463,1.27 -8.576,2.651 -12.312,4.134 v 0 c -8.466,3.286 -15.547,7.186 -19.804,11.814 v 0 c -2.508,2.496 -4.237,5.094 -5.129,7.755 v 0 c -0.695,-4.422 -0.736,-9.243 0.181,-13.789" /></g></g></g></g><g
       id="g118"><g
         clip-path="url(#clipPath124)"
         id="g120"><g
           id="g126"><g
             id="g128"><path
               id="path140"
               style="fill:url(#radialGradient138);stroke:none"
               d="m 478.966,359.143 c 0.667,-0.092 1.695,-0.037 2.358,0.06 v 0 c 13.62,2.019 25.437,12.149 30.013,25.962 v 0 c 2.607,11.36 -13.05,20.841 -30.7,26.72 v 0 c 11.389,-33.446 -13.011,-51.186 -1.671,-52.742" /></g></g></g></g><g
       id="g142"><g
         clip-path="url(#clipPath148)"
         id="g144"><g
           id="g150"><g
             id="g152"><path
               id="path166"
               style="fill:url(#radialGradient164);stroke:none"
               d="m 466.925,438.861 c -5.521,-1.005 -10.353,-3.077 -14.584,-6.257 v 0 c -8.213,-6.176 1.506,-8.945 23.783,-15.624 v 0 c 4.466,-1.268 8.577,-2.652 12.312,-4.133 v 0 c 8.468,-3.287 15.547,-7.186 19.806,-11.814 v 0 c 2.511,-2.498 4.239,-5.096 5.131,-7.753 v 0 c 0.695,4.421 0.733,9.242 -0.181,13.785 v 0 c -3.831,19.101 -20.503,32.437 -39.179,32.438 v 0 c -2.339,0 -4.708,-0.209 -7.088,-0.642" /></g></g></g></g></g></svg>