<?xml version="1.0" encoding="UTF-8" standalone="no"?>
<svg
   xmlns:dc="http://purl.org/dc/elements/1.1/"
   xmlns:cc="http://creativecommons.org/ns#"
   xmlns:rdf="http://www.w3.org/1999/02/22-rdf-syntax-ns#"
   xmlns:svg="http://www.w3.org/2000/svg"
   xmlns="http://www.w3.org/2000/svg"
   viewBox="0 0 966.65929 393.9741"
   height="393.97412"
   width="966.6593"
   xml:space="preserve"
   id="svg2"
   version="1.1"><metadata
     id="metadata8"><rdf:RDF><cc:Work
         rdf:about=""><dc:format>image/svg+xml</dc:format><dc:type
           rdf:resource="http://purl.org/dc/dcmitype/StillImage" /><dc:title></dc:title></cc:Work></rdf:RDF></metadata><defs
     id="defs6"><clipPath
       id="clipPath18"
       clipPathUnits="userSpaceOnUse"><path
         id="path16"
         d="M 0,787.211 H 1270.055 V 0 H 0 Z" /></clipPath></defs><g
     transform="matrix(1.3333333,0,0,-1.3333333,-363.37332,786.94798)"
     id="g10"><g
       id="g12"><g
         clip-path="url(#clipPath18)"
         id="g14"><g
           transform="translate(447.8697,435.1407)"
           id="g20"><path
             id="path22"
             style="fill:#007377;fill-opacity:1;fill-rule:nonzero;stroke:none"
             d="m 0,0 c 3.789,0 7.031,-1.52 9.73,-4.56 2.696,-3.04 4.047,-6.65 4.047,-10.83 0,-4.307 -1.351,-7.95 -4.047,-10.924 -2.699,-2.978 -6.001,-4.465 -9.902,-4.465 -3.905,0 -7.206,1.487 -9.903,4.465 -2.698,2.974 -4.047,6.679 -4.047,11.115 0,4.179 1.378,7.757 4.134,10.734 C -7.233,-1.49 -3.904,0 0,0 m -23.593,-60.989 c -1.265,0 -2.067,0.189 -2.411,0.569 -0.345,0.38 -0.517,1.265 -0.517,2.66 v 11.21 c 0,1.393 0.172,2.28 0.517,2.66 0.344,0.38 1.146,0.571 2.411,0.571 H 8.29 c 1.252,0 2.048,-0.191 2.39,-0.571 0.341,-0.38 0.514,-1.267 0.514,-2.66 v -87.399 c 0,-1.396 -0.173,-2.28 -0.514,-2.66 -0.342,-0.38 -1.138,-0.571 -2.39,-0.571 H -7.602 c -1.253,0 -2.05,0.191 -2.392,0.571 -0.341,0.38 -0.511,1.264 -0.511,2.66 v 72.96 z" /></g><g
           transform="translate(497.3648,395.6212)"
           id="g24"><path
             id="path26"
             style="fill:#007377;fill-opacity:1;fill-rule:nonzero;stroke:none"
             d="m 0,0 c 0.684,0.252 1.251,0.38 1.709,0.38 1.025,0 2.08,-1.131 3.162,-3.391 1.081,-2.259 2.077,-5.459 2.989,-9.6 4.418,4.387 8.632,7.493 12.644,9.312 4.012,1.818 8.519,2.729 13.521,2.729 7.632,0 13.215,-2.408 16.746,-7.22 3.53,-4.815 5.297,-12.415 5.297,-22.8 v -63.84 c 0,-1.395 -0.171,-2.28 -0.513,-2.66 -0.342,-0.38 -1.138,-0.57 -2.39,-0.57 H 37.273 c -1.254,0 -2.05,0.19 -2.392,0.57 -0.341,0.38 -0.511,1.271 -0.511,2.669 v 58.662 c 0,5.712 -0.786,9.809 -2.357,12.285 -1.572,2.476 -4.104,3.714 -7.596,3.714 -2.562,0 -4.976,-0.573 -7.247,-1.717 -2.271,-1.142 -4.919,-3.172 -7.943,-6.091 v -66.853 c 0,-1.398 -0.172,-2.289 -0.514,-2.669 -0.342,-0.38 -1.138,-0.57 -2.389,-0.57 H -9.568 c -1.254,0 -2.051,0.19 -2.392,0.57 -0.342,0.38 -0.512,1.265 -0.512,2.66 v 63.84 c 0,8.105 -1.205,15.01 -3.616,20.71 -0.345,0.76 -0.517,1.392 -0.517,1.9 0,0.76 0.458,1.33 1.378,1.709 z" /></g><g
           transform="translate(581.502,399.8008)"
           id="g28"><path
             id="path30"
             style="fill:#007377;fill-opacity:1;fill-rule:nonzero;stroke:none"
             d="m 0,0 c 0,6.46 0.425,11.558 1.281,15.295 0.853,3.735 2.305,7.059 4.356,9.976 5.126,6.963 12.375,10.449 21.744,10.449 2.64,0 5.223,-0.19 7.75,-0.57 2.524,-0.379 4.762,-0.887 6.716,-1.52 1.951,-0.635 3.531,-1.362 4.736,-2.185 1.205,-0.825 1.809,-1.68 1.809,-2.565 V 28.311 L 48.048,27.36 44.946,13.87 c -0.459,-1.14 -0.976,-1.71 -1.549,-1.71 -0.46,0 -1.033,0.191 -1.722,0.57 -3.559,1.773 -7.005,2.661 -10.333,2.661 -4.02,0 -6.775,-1.33 -8.266,-3.991 C 22.5,10.385 22.129,9.183 21.957,7.79 21.785,6.395 21.698,3.8 21.698,0 v -7.979 h 19.633 c 1.951,0 2.928,-0.636 2.928,-1.901 0,-0.508 -0.115,-1.14 -0.346,-1.9 l -2.41,-11.02 c -0.461,-1.9 -1.551,-2.849 -3.272,-2.849 H 21.698 v -72.96 c 0,-1.396 -0.172,-2.281 -0.513,-2.661 -0.342,-0.379 -1.139,-0.57 -2.39,-0.57 H 2.903 c -1.254,0 -2.05,0.191 -2.392,0.57 C 0.169,-100.89 0,-100.005 0,-98.609 v 72.96 h -13.088 c -1.494,0 -2.355,0.189 -2.583,0.569 -0.232,0.38 -0.345,1.71 -0.345,3.99 v 10.45 c 0,1.773 0.974,2.661 2.928,2.661 H 0 Z" /></g><g
           transform="translate(666.919,375.8614)"
           id="g32"><path
             id="path34"
             style="fill:#007377;fill-opacity:1;fill-rule:nonzero;stroke:none"
             d="m 0,0 c -4.937,0 -8.498,-2.408 -10.678,-7.221 -2.181,-4.815 -3.271,-12.729 -3.271,-23.75 0,-11.019 1.09,-18.937 3.271,-23.75 2.18,-4.815 5.797,-7.219 10.85,-7.219 5.166,0 8.84,2.404 11.021,7.219 2.18,4.813 3.274,12.665 3.274,23.561 0,11.272 -1.121,19.285 -3.36,24.035 C 8.869,-2.375 5.166,0 0,0 m 1.033,19.189 c 5.625,0 10.705,-1.172 15.24,-3.514 4.536,-2.346 8.381,-5.671 11.539,-9.976 3.157,-4.307 5.598,-9.532 7.319,-15.675 1.723,-6.145 2.584,-13.08 2.584,-20.804 0,-7.728 -0.861,-14.696 -2.584,-20.901 -1.721,-6.207 -4.192,-11.495 -7.404,-15.864 -3.215,-4.37 -7.147,-7.728 -11.797,-10.07 -4.651,-2.343 -9.846,-3.516 -15.586,-3.516 -11.826,0 -21.039,4.401 -27.639,13.205 -6.603,8.803 -9.902,21.12 -9.902,36.955 0,15.325 3.328,27.423 9.988,36.29 3.672,4.813 7.75,8.327 12.227,10.545 4.478,2.215 9.816,3.325 16.015,3.325" /></g><g
           transform="translate(720.1319,320.1915)"
           id="g36"><path
             id="path38"
             style="fill:#007377;fill-opacity:1;fill-rule:nonzero;stroke:none"
             d="m 0,0 c 0.346,1.265 0.918,1.899 1.723,1.899 0.343,0 0.861,-0.189 1.55,-0.57 9.067,-5.447 16.875,-8.17 23.42,-8.17 2.985,0 5.395,0.918 7.233,2.755 1.836,1.835 2.756,4.21 2.756,7.125 0,1.266 -0.172,2.405 -0.518,3.421 -0.344,1.012 -0.976,1.962 -1.893,2.85 -0.921,0.884 -2.269,1.772 -4.048,2.66 -1.782,0.884 -4.047,1.899 -6.801,3.04 -2.756,1.139 -5.08,2.184 -6.975,3.135 -1.894,0.95 -3.531,1.804 -4.908,2.565 -1.379,0.76 -2.527,1.519 -3.445,2.279 -0.92,0.761 -1.782,1.521 -2.582,2.281 -4.594,4.812 -6.889,11.019 -6.889,18.62 0,4.559 0.744,8.74 2.238,12.54 1.491,3.799 3.618,7.059 6.371,9.785 2.756,2.722 5.998,4.845 9.731,6.364 3.73,1.521 7.836,2.28 12.314,2.28 2.754,0 5.653,-0.285 8.696,-0.854 3.041,-0.57 5.882,-1.301 8.525,-2.186 2.639,-0.887 4.822,-1.838 6.543,-2.849 1.723,-1.016 2.584,-1.966 2.584,-2.851 0,-0.635 -0.172,-1.33 -0.518,-2.09 l -4.304,-10.83 c -0.576,-1.139 -1.149,-1.71 -1.723,-1.71 -0.23,0 -0.687,0.125 -1.377,0.38 -6.66,3.293 -12.459,4.941 -17.392,4.941 -7.35,0 -11.022,-3.231 -11.022,-9.691 0,-2.535 0.715,-4.497 2.152,-5.89 1.434,-1.395 4.504,-3.105 9.213,-5.129 3.213,-1.396 5.883,-2.598 8.008,-3.611 2.123,-1.014 3.932,-1.932 5.424,-2.755 1.492,-0.825 2.727,-1.647 3.703,-2.469 0.975,-0.826 1.922,-1.681 2.842,-2.566 4.705,-5.195 7.06,-11.655 7.06,-19.38 0,-4.054 -0.689,-8.012 -2.066,-11.875 -1.379,-3.865 -3.332,-7.253 -5.855,-10.165 -5.166,-5.824 -12.227,-8.74 -21.182,-8.74 -4.822,0 -9.789,0.698 -14.897,2.091 -5.109,1.391 -9.902,3.354 -14.378,5.89 -1.61,0.884 -2.643,1.549 -3.102,1.995 -0.459,0.442 -0.688,0.979 -0.688,1.615 0,0.38 0.028,0.694 0.086,0.949 0.057,0.253 0.2,0.695 0.43,1.33 z" /></g><g
           transform="translate(810.1983,435.1407)"
           id="g40"><path
             id="path42"
             style="fill:#007377;fill-opacity:1;fill-rule:nonzero;stroke:none"
             d="m 0,0 c 3.789,0 7.031,-1.52 9.73,-4.56 2.696,-3.04 4.047,-6.65 4.047,-10.83 0,-4.307 -1.351,-7.95 -4.047,-10.924 -2.699,-2.978 -6.001,-4.465 -9.902,-4.465 -3.904,0 -7.207,1.487 -9.902,4.465 -2.699,2.974 -4.047,6.679 -4.047,11.115 0,4.179 1.377,7.757 4.133,10.734 C -7.232,-1.49 -3.904,0 0,0 m -23.594,-60.989 c -1.263,0 -2.066,0.189 -2.41,0.569 -0.344,0.38 -0.517,1.265 -0.517,2.66 v 11.21 c 0,1.393 0.173,2.28 0.517,2.66 0.344,0.38 1.147,0.571 2.41,0.571 H 8.291 c 1.25,0 2.047,-0.191 2.389,-0.571 0.341,-0.38 0.513,-1.267 0.513,-2.66 v -87.399 c 0,-1.396 -0.172,-2.28 -0.513,-2.66 -0.342,-0.38 -1.139,-0.571 -2.389,-0.571 H -7.602 c -1.253,0 -2.05,0.191 -2.392,0.571 -0.342,0.38 -0.512,1.264 -0.512,2.66 v 72.96 z" /></g><g
           transform="translate(868.921,301.1817)"
           id="g44"><path
             id="path46"
             style="fill:#007377;fill-opacity:1;fill-rule:nonzero;stroke:none"
             d="m 0,0 c 0,-1.389 -0.176,-2.273 -0.523,-2.653 -0.346,-0.38 -1.157,-0.568 -2.43,-0.568 h -15.795 c -1.275,0 -2.084,0.191 -2.432,0.571 -0.347,0.379 -0.519,1.264 -0.519,2.66 v 63.84 c 0,2.404 -0.059,4.527 -0.172,6.364 -0.115,1.835 -0.289,3.515 -0.518,5.035 -0.23,1.521 -0.545,2.975 -0.947,4.37 -0.402,1.393 -0.891,2.975 -1.463,4.75 -0.344,0.76 -0.517,1.455 -0.517,2.09 0,0.885 0.63,1.645 1.894,2.28 l 14.047,5.13 c 0.463,0.125 0.811,0.22 1.041,0.285 0.23,0.063 0.465,0.095 0.697,0.095 0.926,0 1.877,-1.247 2.864,-3.74 0.982,-2.494 1.877,-5.852 2.689,-10.073 4.822,4.86 9.127,8.312 12.916,10.361 3.789,2.048 8.035,3.072 12.744,3.072 8.84,0 15.096,-4.479 18.772,-13.433 4.918,4.987 9.353,8.475 13.3,10.459 3.948,1.983 8.325,2.974 13.131,2.974 7.895,0 13.387,-3.168 16.475,-9.5 1.26,-2.66 2.09,-5.51 2.49,-8.55 0.399,-3.04 0.6,-7.475 0.6,-13.299 V 0.01 c 0,-1.396 -0.172,-2.281 -0.516,-2.66 -0.346,-0.38 -1.15,-0.571 -2.412,-0.571 H 69.572 c -1.263,0 -2.066,0.188 -2.41,0.568 -0.344,0.38 -0.517,1.264 -0.517,2.653 v 60.085 c 0,5.305 -0.571,9.063 -1.707,11.275 -1.143,2.212 -3.135,3.32 -5.983,3.32 -2.279,0 -4.529,-0.633 -6.752,-1.898 C 49.98,71.518 47.334,69.309 44.258,66.15 V 0 c 0,-1.389 -0.176,-2.273 -0.522,-2.653 -0.347,-0.38 -1.158,-0.568 -2.429,-0.568 H 25.512 c -1.276,0 -2.086,0.188 -2.434,0.568 -0.348,0.38 -0.519,1.264 -0.519,2.653 v 58.188 c 0,6.318 -0.543,10.581 -1.625,12.792 -1.082,2.212 -3.163,3.319 -6.237,3.319 -2.279,0 -4.558,-0.632 -6.838,-1.897 C 5.58,71.138 2.959,69.054 0,66.15 Z" /></g><g
           transform="translate(975.5635,427.9288)"
           id="g48"><path
             id="path50"
             style="fill:#007377;fill-opacity:1;fill-rule:nonzero;stroke:none"
             d="m 0,0 c 1.52,0 2.58,0.229 3.18,0.69 0.601,0.459 0.9,1.269 0.9,2.43 0,1.08 -0.26,1.809 -0.779,2.19 -0.52,0.379 -1.5,0.57 -2.94,0.57 h -1.14 V 0 Z m 11.041,-12 c 0.158,-0.2 0.24,-0.44 0.24,-0.72 0,-0.36 -0.301,-0.621 -0.9,-0.78 L 7.26,-14.341 C 7.061,-14.421 6.881,-14.46 6.721,-14.46 6.4,-14.46 6.1,-14.241 5.82,-13.8 l -5.039,9.42 h -1.56 v -8.4 c 0,-0.441 -0.08,-0.731 -0.241,-0.87 -0.16,-0.141 -0.46,-0.21 -0.9,-0.21 h -3.299 c -0.441,0 -0.742,0.08 -0.9,0.24 -0.16,0.159 -0.24,0.48 -0.24,0.96 V 9.06 c 0,0.439 0.08,0.729 0.24,0.87 0.158,0.139 0.459,0.21 0.9,0.21 h 6 C 3.9,10.14 6.17,9.579 7.59,8.46 9.01,7.339 9.721,5.54 9.721,3.06 9.721,1.46 9.41,0.14 8.791,-0.9 8.17,-1.94 7.16,-2.841 5.76,-3.601 Z M 1.68,15.239 c -2.039,0 -3.981,-0.46 -5.819,-1.379 -1.841,-0.922 -3.441,-2.171 -4.8,-3.75 -1.36,-1.581 -2.44,-3.42 -3.241,-5.52 -0.8,-2.101 -1.199,-4.351 -1.199,-6.75 0,-2.4 0.399,-4.66 1.199,-6.78 0.801,-2.122 1.891,-3.96 3.27,-5.52 1.381,-1.561 2.99,-2.801 4.83,-3.721 1.84,-0.92 3.82,-1.379 5.941,-1.379 2.078,0 4.039,0.459 5.879,1.379 1.84,0.92 3.451,2.16 4.83,3.721 1.381,1.56 2.469,3.39 3.27,5.49 0.801,2.1 1.201,4.35 1.201,6.75 0,2.44 -0.4,4.719 -1.201,6.84 -0.801,2.119 -1.889,3.969 -3.27,5.55 -1.379,1.579 -3,2.819 -4.859,3.719 -1.859,0.901 -3.871,1.35 -6.031,1.35 m 0.422,3.96 c 2.718,0 5.279,-0.57 7.679,-1.709 2.399,-1.141 4.5,-2.681 6.299,-4.62 1.801,-1.941 3.231,-4.2 4.291,-6.78 1.059,-2.58 1.59,-5.331 1.59,-8.25 0,-2.961 -0.531,-5.73 -1.59,-8.31 -1.06,-2.58 -2.5,-4.841 -4.32,-6.78 -1.821,-1.94 -3.951,-3.471 -6.391,-4.591 -2.439,-1.119 -5.039,-1.68 -7.799,-1.68 -2.759,0 -5.371,0.561 -7.83,1.68 -2.461,1.12 -4.601,2.651 -6.42,4.591 -1.822,1.939 -3.261,4.2 -4.32,6.78 -1.061,2.58 -1.59,5.329 -1.59,8.25 0,3 0.529,5.799 1.59,8.4 1.059,2.599 2.51,4.87 4.35,6.809 1.839,1.94 4,3.46 6.48,4.56 2.479,1.1 5.139,1.65 7.981,1.65" /></g><path
           id="path52"
           style="fill:#1d1d1b;fill-opacity:1;fill-rule:nonzero;stroke:none"
           d="M 322.136,441.392 H 272.53 v 99.213 h 49.606 z" /><path
           id="path54"
           style="fill:#007377;fill-opacity:1;fill-rule:nonzero;stroke:none"
           d="m 371.743,391.785 h -49.606 v 99.213 h 49.606 z" /><g
           transform="translate(376.7803,590.211)"
           id="g56"><path
             id="path58"
             style="fill:#1d1d1b;fill-opacity:1;fill-rule:nonzero;stroke:none"
             d="M 0,0 H -5.038 -54.644 V -49.606 H -5.038 V -99.213 H 44.569 V 0 Z" /></g></g></g></g></svg>